<svg xmlns="http://www.w3.org/2000/svg"  viewBox="0 0 64 64" width="256px" height="256px"><linearGradient id="j2V8hlCg91knYUgk5ZzwRa" x1="23.5" x2="23.5" y1="28.638" y2="31.441" gradientUnits="userSpaceOnUse"><stop offset="0" stop-color="#6dc7ff"/><stop offset="1" stop-color="#e6abff"/></linearGradient><polygon fill="url(#j2V8hlCg91knYUgk5ZzwRa)" points="28,33 19,33 19,26.804 28,28.882"/><linearGradient id="j2V8hlCg91knYUgk5ZzwRb" x1="40.5" x2="40.5" y1="28.638" y2="31.441" gradientUnits="userSpaceOnUse"><stop offset="0" stop-color="#6dc7ff"/><stop offset="1" stop-color="#e6abff"/></linearGradient><polygon fill="url(#j2V8hlCg91knYUgk5ZzwRb)" points="45,33 36,33 36,28.882 45,26.804"/><linearGradient id="j2V8hlCg91knYUgk5ZzwRc" x1="32" x2="32" y1="5.894" y2="58.852" gradientUnits="userSpaceOnUse"><stop offset="0" stop-color="#1a6dff"/><stop offset="1" stop-color="#c822ff"/></linearGradient><path fill="url(#j2V8hlCg91knYUgk5ZzwRc)" d="M52.056,23.011c0,0,0.003-0.58,0.002-0.656l0.01-3.773 c0.037-7.427-6.075-13.501-13.626-13.54L25.83,5c-0.024,0-0.047,0-0.071,0c-7.517,0-13.651,5.997-13.689,13.4l-0.023,4.61 C12.03,23.008,12.016,23,12,23c-0.553,0-1,0.448-1,1v11c0,0.545,0.437,0.984,0.98,0.996l-0.037,7.343 c-0.001,0.194,0.055,0.385,0.16,0.548l8.824,13.643c0.573,0.885,1.55,1.416,2.615,1.42l16.648,0.056c0.004,0,0.009,0,0.013,0 c1.056,0,2.028-0.52,2.595-1.376l9.024-13.062c0.115-0.166,0.177-0.363,0.178-0.565l0.022-8.007C52.564,35.984,53,35.545,53,35V24 C53,23.468,52.581,23.042,52.056,23.011z M40.467,50H39v-1c0-0.552-0.447-1-1-1h-4h-3h-5c-0.553,0-1,0.448-1,1v1h-1.688 l-9.328-14.679l0.065-12.811c0.004-0.035,0.021-0.065,0.021-0.101c0.029-5.762,4.468-10.6,10.23-11.307l2.089,5.045 C26.854,17.273,27.942,18,29.16,18h5.681c1.216,0,2.304-0.727,2.771-1.852l2.079-5.018c5.822,0.639,10.276,5.418,10.367,11.207 l-0.035,12.968L40.467,50z M25.76,7c0.021,0,0.042,0,0.062,0l12.612,0.043c4.927,0.025,9.128,3.056,10.825,7.307 c-2.356-3.031-5.994-5.056-10.161-5.272c-0.436-0.016-0.813,0.226-0.976,0.616l-2.357,5.688C35.609,15.757,35.246,16,34.841,16 H29.16c-0.406,0-0.769-0.242-0.924-0.618l-2.371-5.726c-0.163-0.394-0.558-0.637-0.986-0.615 c-4.099,0.257-7.692,2.302-10.023,5.323C16.545,10.062,20.792,7,25.76,7z M41.142,56.51c-0.206,0.311-0.557,0.497-0.939,0.497 c-0.001,0-0.003,0-0.005,0L23.549,56.95c-0.386-0.001-0.738-0.191-0.942-0.507l-8.662-13.393l0.02-4.032l7.954,12.517 c0.19,0.3,0.514,0.464,0.845,0.464C22.81,52,26,52,26,52c0.553,0,1-0.448,1-1v-1h4h3h3v1c0,0.552,0.447,1,1,1h3 c0.4,0,0.74-0.239,0.899-0.578c0.042-0.044,8.114-12.434,8.114-12.434l-0.013,4.699L41.142,56.51z"/><linearGradient id="j2V8hlCg91knYUgk5ZzwRd" x1="23.5" x2="23.5" y1="5.894" y2="58.852" gradientUnits="userSpaceOnUse"><stop offset="0" stop-color="#1a6dff"/><stop offset="1" stop-color="#c822ff"/></linearGradient><path fill="url(#j2V8hlCg91knYUgk5ZzwRd)" d="M28.225,27.908l-9-2.079c-0.294-0.068-0.608,0.002-0.847,0.192 C18.139,26.211,18,26.5,18,26.804V33c0,0.552,0.447,1,1,1h9c0.553,0,1-0.448,1-1v-4.118C29,28.417,28.679,28.013,28.225,27.908z M27,32h-7v-3.938l7,1.616V32z"/><linearGradient id="j2V8hlCg91knYUgk5ZzwRe" x1="40.5" x2="40.5" y1="5.894" y2="58.852" gradientUnits="userSpaceOnUse"><stop offset="0" stop-color="#1a6dff"/><stop offset="1" stop-color="#c822ff"/></linearGradient><path fill="url(#j2V8hlCg91knYUgk5ZzwRe)" d="M44.775,25.83l-9,2.079C35.321,28.013,35,28.417,35,28.882V33c0,0.552,0.447,1,1,1h9 c0.553,0,1-0.448,1-1v-6.196c0-0.305-0.139-0.593-0.378-0.783C45.384,25.832,45.071,25.763,44.775,25.83z M44,32h-7v-2.322l7-1.616 V32z"/></svg>